#N canvas 461 46 966 802 10;
#X obj 126 183 s time;
#X obj 51 161 timebase 60 4;
#X obj 572 396 dac~, f 34;
#X floatatom 88 141 5 0 0 0 - - -, f 5;
#X floatatom 126 139 5 0 0 0 - - -, f 5;
#X obj 88 44 % 32;
#X obj 88 66 < 16;
#X obj 88 88 sel 0 1;
#X obj 88 21 r time;
#X obj 16 108 tgl 15 0 empty empty empty 17 7 0 10 -262144 -1 -1 0
1;
#X obj 16 65 loadbang;
#X msg 16 87 1;
#X obj 51 183 s tick;
#X obj 541 103 r cricketNote;
#X obj 541 151 f;
#X obj 565 151 + 1;
#X floatatom 541 195 5 0 0 0 - - -, f 5;
#X obj 541 127 t b l, f 16;
#X obj 634 150 unpack f f f;
#X obj 541 214 pack f f f f;
#X msg 118 109 29;
#X msg 88 110 37;
#X obj 541 236 route 0 1 2 3 4 5 6 7, f 40;
#X obj 541 173 % 8;
#X obj 15 399 s keyRoot;
#X obj 78 400 s keyMode;
#X floatatom 15 376 5 0 0 0 - - -, f 5;
#X floatatom 78 375 5 0 0 0 - - -, f 5;
#X obj 15 243 r time;
#X obj 15 315 t b b;
#X obj 117 316 t b b;
#X msg 15 337 1;
#X msg 43 337 1;
#X msg 117 338 6;
#X msg 145 338 6;
#X obj 540 295 cricketwrapper~;
#X obj 639 295 cricketwrapper~;
#X obj 736 295 cricketwrapper~;
#X obj 832 295 cricketwrapper~;
#X obj 540 323 cricketwrapper~;
#X obj 639 323 cricketwrapper~;
#X obj 736 323 cricketwrapper~;
#X obj 832 323 cricketwrapper~;
#X obj 189 313 t b b;
#X msg 189 335 4;
#X msg 216 335 4;
#X obj 541 41 makecricketnote 57 43 133 5 5 14;
#X obj 752 21 makecricketnote 51 99 121 1 6 7;
#X obj 247 313 t b b;
#X msg 247 335 5;
#X msg 274 335 5;
#X obj 15 265 % 511;
#X obj 752 81 makecricketnote 89 359 21 1 7 0;
#X obj 15 287 sel 0 63 211 275 301 397;
#X obj 752 61 makecricketnote 39 451 21 1 5 13;
#X obj 541 21 makecricketnote 17 123 100 1 4 14;
#X obj 541 61 makecricketnote 31 213 87 7 5 2;
#X obj 541 81 makecricketnote 27 297 43 3 6 5;
#X obj 752 41 makecricketnote 61 397 54 5 6 8;
#X connect 1 0 12 0;
#X connect 1 1 0 0;
#X connect 3 0 1 1;
#X connect 4 0 1 2;
#X connect 5 0 6 0;
#X connect 6 0 7 0;
#X connect 7 0 21 0;
#X connect 7 1 20 0;
#X connect 8 0 5 0;
#X connect 9 0 1 0;
#X connect 10 0 11 0;
#X connect 11 0 9 0;
#X connect 13 0 17 0;
#X connect 14 0 15 0;
#X connect 14 0 23 0;
#X connect 15 0 14 1;
#X connect 16 0 19 0;
#X connect 17 0 14 0;
#X connect 17 1 18 0;
#X connect 18 0 19 1;
#X connect 18 1 19 2;
#X connect 18 2 19 3;
#X connect 19 0 22 0;
#X connect 20 0 3 0;
#X connect 21 0 3 0;
#X connect 22 0 35 0;
#X connect 22 1 36 0;
#X connect 22 2 37 0;
#X connect 22 3 38 0;
#X connect 22 4 39 0;
#X connect 22 5 40 0;
#X connect 22 6 41 0;
#X connect 22 7 42 0;
#X connect 23 0 16 0;
#X connect 26 0 24 0;
#X connect 27 0 25 0;
#X connect 28 0 51 0;
#X connect 29 0 31 0;
#X connect 29 1 32 0;
#X connect 30 0 33 0;
#X connect 30 1 34 0;
#X connect 31 0 26 0;
#X connect 32 0 27 0;
#X connect 33 0 26 0;
#X connect 34 0 27 0;
#X connect 35 0 2 0;
#X connect 36 0 2 1;
#X connect 37 0 2 0;
#X connect 38 0 2 1;
#X connect 39 0 2 0;
#X connect 40 0 2 1;
#X connect 41 0 2 0;
#X connect 42 0 2 1;
#X connect 43 0 44 0;
#X connect 43 1 45 0;
#X connect 44 0 26 0;
#X connect 45 0 27 0;
#X connect 48 0 49 0;
#X connect 48 1 50 0;
#X connect 49 0 26 0;
#X connect 50 0 27 0;
#X connect 51 0 53 0;
#X connect 53 0 29 0;
#X connect 53 1 30 0;
#X connect 53 2 43 0;
#X connect 53 3 48 0;
#X connect 53 4 30 0;
#X connect 53 5 29 0;
