#N canvas 0 22 226 284 10;
#X obj 46 16 inlet trigger;
#X obj 46 53 t b b;
#X obj 46 90 f \$1;
#X obj 99 85 f \$2;
#X obj 46 127 pack f f;
#X msg 46 164 0 0 0 \, 1 \$1 0 \, 0 \$2 \$1;
#X obj 84 209 vline~;
#X obj 84 246 outlet~;
#X connect 0 0 1 0;
#X connect 1 0 2 0;
#X connect 1 1 3 0;
#X connect 2 0 4 0;
#X connect 3 0 4 1;
#X connect 4 0 5 0;
#X connect 5 0 6 0;
#X connect 6 0 7 0;
