#N canvas 461 28 927 811 10;
#X msg 142 562 0 \, \$1 0.1 0 \, 0 0 0.1;
#X obj 142 584 vline~;
#X obj 142 606 lop~ 1000;
#X obj 164 630 bp~ 4500 1200;
#X obj 290 627 bp~ 4550 1200;
#X obj 290 650 bp~ 4600 1200;
#X obj 450 626 bp~ 9000 500;
#X obj 165 653 *~ 100;
#X obj 450 648 *~ 42;
#X obj 143 750 hip~ 4000;
#X obj 123 184 metro 20;
#X msg 123 159 1;
#X obj 123 222 f;
#X obj 152 222 + 1;
#X msg 193 159 0;
#X obj 123 135 t b b;
#X msg 81 159 0;
#X obj 142 353 /;
#X obj 123 304 sel 0 1;
#X obj 142 331 f;
#X obj 123 244 t f f;
#X obj 123 282 <=;
#X obj 143 772 outlet~;
#X obj 123 65 inlet bang;
#X obj 421 60 inlet numClicks;
#X obj 556 63 inlet frequency;
#X obj 244 62 inlet clickDuration;
#X obj 421 87 f \$2;
#X obj 556 85 f \$3;
#X obj 556 130 * 1.1;
#X obj 593 129 * 1.2;
#X obj 633 128 * 2;
#X obj 244 84 f \$1;
#X obj 252 22 loadbang;
#X obj 142 375 * 3.14159;
#X obj 142 397 sin;
#X obj 142 419 clip 0 1;
#X obj 142 441 *;
#X obj 142 463 *;
#X obj 659 127 * 0.99;
#X obj 290 672 *~ 30;
#X connect 0 0 1 0;
#X connect 1 0 2 0;
#X connect 2 0 3 0;
#X connect 2 0 4 0;
#X connect 2 0 5 0;
#X connect 2 0 6 0;
#X connect 3 0 7 0;
#X connect 5 0 40 0;
#X connect 6 0 8 0;
#X connect 7 0 9 0;
#X connect 8 0 9 0;
#X connect 9 0 22 0;
#X connect 10 0 12 0;
#X connect 11 0 10 0;
#X connect 12 0 13 0;
#X connect 12 0 20 0;
#X connect 13 0 12 1;
#X connect 14 0 12 1;
#X connect 15 0 11 0;
#X connect 15 1 14 0;
#X connect 16 0 10 0;
#X connect 17 0 34 0;
#X connect 18 0 16 0;
#X connect 18 1 19 0;
#X connect 19 0 17 0;
#X connect 20 0 21 0;
#X connect 20 1 19 1;
#X connect 21 0 18 0;
#X connect 23 0 15 0;
#X connect 24 0 27 0;
#X connect 25 0 28 0;
#X connect 26 0 32 0;
#X connect 27 0 17 1;
#X connect 27 0 21 1;
#X connect 28 0 29 0;
#X connect 28 0 30 0;
#X connect 28 0 31 0;
#X connect 28 0 3 1;
#X connect 28 0 39 0;
#X connect 29 0 4 1;
#X connect 30 0 5 1;
#X connect 31 0 6 1;
#X connect 32 0 10 1;
#X connect 33 0 32 0;
#X connect 33 0 27 0;
#X connect 33 0 28 0;
#X connect 34 0 35 0;
#X connect 35 0 36 0;
#X connect 36 0 37 0;
#X connect 36 0 37 1;
#X connect 37 0 38 0;
#X connect 37 0 38 1;
#X connect 38 0 0 0;
#X connect 39 0 9 1;
#X connect 40 0 9 0;
