#N canvas 548 80 716 541 10;
#X obj 15 10 inlet;
#X obj 60 10 inlet;
#X obj 15 40 metro 15;
#X obj 15 70 f 0;
#X obj 43 70 + 1;
#X obj 15 100 mod \$1;
#X obj 15 130 outlet;
#X connect 0 0 2 0;
#X connect 1 0 2 1;
#X connect 2 0 3 0;
#X connect 3 0 4 0;
#X connect 3 0 5 0;
#X connect 4 0 3 1;
#X connect 5 0 6 0;
