#N canvas 147 318 239 247 10;
#X obj 113 14 inlet trigger;
#X obj 156 42 loadbang;
#X obj 156 74 f \$1;
#X obj 113 117 f 10;
#X msg 113 139 0 0 0 \, 1 \$1 0;
#X obj 113 163 vline~;
#X obj 34 163 sig~ 2.71828;
#X obj 92 191 pow~;
#X obj 92 214 outlet~ signal;
#X connect 0 0 3 0;
#X connect 1 0 2 0;
#X connect 2 0 3 1;
#X connect 3 0 4 0;
#X connect 4 0 5 0;
#X connect 5 0 7 1;
#X connect 6 0 7 0;
#X connect 7 0 8 0;
