#N canvas 0 22 797 722 10;
#X obj 51 36 + 1;
#X obj 20 14 r tick;
#X obj 20 628 s cricketNote;
#X obj 20 80 == 0;
#X obj 20 102 sel 1;
#X obj 20 58 % \$1;
#X obj 20 146 f \$2;
#X obj 120 147 f \$3;
#X obj 221 147 f \$4;
#X obj 414 146 r keyRoot;
#X obj 522 147 r keyMode;
#X obj 414 168 - 1;
#X obj 414 190 % 7;
#X obj 522 169 - 1;
#X obj 522 191 % 7;
#X obj 522 213 sel 0 1 2 3 4 5 6, f 40;
#X msg 553 242 2;
#X msg 594 242 4;
#X msg 628 242 5;
#X msg 671 242 7;
#X msg 710 242 9;
#X msg 753 242 11;
#X obj 414 304 -;
#X obj 522 274 t b f;
#X obj 221 342 +;
#X obj 221 390 % 7;
#X obj 183 394 / 7;
#X obj 221 412 sel 0 1 2 3 4 5 6, f 36;
#X msg 221 434 0;
#X msg 249 434 2;
#X msg 279 434 4;
#X msg 307 434 5;
#X msg 340 434 7;
#X msg 368 434 9;
#X msg 401 434 11;
#X obj 184 466 * 12;
#X obj 184 491 +;
#X obj 202 365 t f f;
#X obj 184 513 +;
#X obj 184 552 mtof;
#X obj 20 600 pack f f f;
#X obj 20 124 t b b b b, f 51;
#X obj 323 147 f \$5;
#X obj 279 558 print midiNote;
#X obj 183 440 +;
#X obj 221 169 - 1;
#X obj 20 36 f \$6;
#X obj 183 415 int;
#X connect 0 0 46 1;
#X connect 1 0 46 0;
#X connect 3 0 4 0;
#X connect 4 0 41 0;
#X connect 5 0 3 0;
#X connect 6 0 40 0;
#X connect 7 0 40 1;
#X connect 8 0 45 0;
#X connect 9 0 11 0;
#X connect 10 0 13 0;
#X connect 11 0 12 0;
#X connect 12 0 22 0;
#X connect 13 0 14 0;
#X connect 13 0 24 1;
#X connect 14 0 15 0;
#X connect 15 0 23 0;
#X connect 15 1 16 0;
#X connect 15 2 17 0;
#X connect 15 3 18 0;
#X connect 15 4 19 0;
#X connect 15 5 20 0;
#X connect 15 6 21 0;
#X connect 16 0 23 0;
#X connect 17 0 23 0;
#X connect 18 0 23 0;
#X connect 19 0 23 0;
#X connect 20 0 23 0;
#X connect 21 0 23 0;
#X connect 22 0 38 1;
#X connect 23 0 22 0;
#X connect 23 1 22 1;
#X connect 24 0 37 0;
#X connect 25 0 27 0;
#X connect 26 0 47 0;
#X connect 27 0 28 0;
#X connect 27 1 29 0;
#X connect 27 2 30 0;
#X connect 27 3 31 0;
#X connect 27 4 32 0;
#X connect 27 5 33 0;
#X connect 27 6 34 0;
#X connect 28 0 36 1;
#X connect 29 0 36 1;
#X connect 30 0 36 1;
#X connect 31 0 36 1;
#X connect 32 0 36 1;
#X connect 33 0 36 1;
#X connect 34 0 36 1;
#X connect 35 0 36 0;
#X connect 36 0 38 0;
#X connect 37 0 26 0;
#X connect 37 1 25 0;
#X connect 38 0 39 0;
#X connect 38 0 43 0;
#X connect 39 0 40 2;
#X connect 40 0 2 0;
#X connect 41 0 6 0;
#X connect 41 1 7 0;
#X connect 41 2 8 0;
#X connect 41 3 42 0;
#X connect 42 0 44 1;
#X connect 44 0 35 0;
#X connect 45 0 24 0;
#X connect 46 0 0 0;
#X connect 46 0 5 0;
#X connect 47 0 44 0;
