#N canvas 0 22 586 536 10;
#X obj 192 17 loadbang;
#X obj 54 79 inlet enable;
#X obj 192 76 inlet bpm;
#X obj 269 79 inlet beatsPerBar;
#X obj 192 98 f \$1;
#X obj 269 101 f \$2;
#X obj 192 120 swap 60000;
#X obj 192 142 /;
#X obj 192 164 /;
#X obj 269 123 t b f;
#X obj 192 186 t f f;
#X obj 95 101 sel 0;
#X msg 95 123 0;
#X obj 54 293 metro;
#X obj 54 315 t b b;
#X obj 54 439 outlet bangs;
#X obj 203 415 f 0;
#X obj 230 415 + 1;
#X obj 203 437 outlet time;
#X text 328 33 from Farnell \, Designing Sound fig 14.19;
#X obj 192 39 t b b;
#X connect 0 0 20 0;
#X connect 1 0 11 0;
#X connect 1 0 13 0;
#X connect 2 0 4 0;
#X connect 3 0 5 0;
#X connect 4 0 6 0;
#X connect 5 0 9 0;
#X connect 6 0 7 0;
#X connect 6 1 7 1;
#X connect 7 0 8 0;
#X connect 8 0 10 0;
#X connect 9 0 8 0;
#X connect 9 1 8 1;
#X connect 10 0 13 1;
#X connect 11 0 12 0;
#X connect 12 0 16 1;
#X connect 13 0 14 0;
#X connect 14 0 15 0;
#X connect 14 1 16 0;
#X connect 16 0 17 0;
#X connect 16 0 18 0;
#X connect 17 0 16 1;
#X connect 20 0 4 0;
#X connect 20 1 5 0;
