#N canvas 240 37 1110 826 10;
#X obj 255 568 dac~;
#X msg 155 41 60 12 250;
#X obj 220 434 *~ 0.25;
#N canvas 0 22 450 278 (subpatch) 0;
#X array scope 100 float 0;
#X coords 0 1 99 -1 200 140 1 0 0;
#X restore 841 632 graph;
#X obj 35 300 tabwrite~ scope;
#X obj 35 263 metro 20;
#X obj 32 229 tgl 15 0 empty empty empty 17 7 0 10 -262144 -1 -1 1
1;
#X obj 206 195 noise~;
#X obj 206 217 lop~ 440;
#X obj 206 239 *~, f 14;
#X obj 284 84 osc~ 1;
#X obj 284 106 +~ 1;
#X obj 284 128 *~ 0.5;
#X obj 284 150 *~, f 11;
#X floatatom 347 108 5 0 0 0 - - -, f 5;
#X obj 206 261 +~, f 38;
#X obj 432 239 sig~ 440;
#X floatatom 433 213 5 0 0 0 - - -, f 5;
#X obj 206 283 osc~;
#X floatatom 282 45 5 0 0 0 - - -, f 5;
#X floatatom 213 141 5 0 0 0 - - -, f 5;
#X obj 284 172 +~, f 21;
#X floatatom 405 108 5 0 0 0 - - -, f 5;
#X obj 316 317 delwrite~ del_rain 1024;
#X obj 346 475 vd~ del_rain;
#X obj 346 353 osc~ 0.01;
#X obj 346 375 +~ 1;
#X obj 346 397 *~ 0.5;
#X obj 346 419 *~, f 15;
#X floatatom 428 383 5 0 0 0 - - -, f 5;
#X obj 346 441 +~, f 23;
#X floatatom 478 381 5 0 0 0 - - -, f 5;
#X obj 551 195 osc~ 0.01;
#X obj 551 217 +~ 1;
#X obj 551 239 *~ 0.5;
#X obj 551 261 *~, f 15;
#X floatatom 636 234 5 0 0 0 - - -, f 5;
#X obj 548 37 osc~ 0.01;
#X obj 548 59 +~ 1;
#X obj 548 81 *~ 0.5;
#X obj 548 103 *~, f 15;
#X floatatom 633 76 5 0 0 0 - - -, f 5;
#X obj 548 159 snapshot~ 20;
#X obj 482 100 metro 20;
#X obj 481 67 tgl 15 0 empty empty empty 17 7 0 10 -262144 -1 -1 1
1;
#X obj 548 125 +~, f 23;
#X floatatom 682 77 5 0 0 0 - - -, f 5;
#X floatatom 549 12 5 0 0 0 - - -, f 5;
#X obj 206 305 hip~;
#X obj 797 47 osc~ 0.01;
#X obj 797 69 +~ 1;
#X obj 797 91 *~ 0.5;
#X obj 797 113 *~, f 15;
#X floatatom 882 86 5 0 0 0 - - -, f 5;
#X obj 797 169 snapshot~ 20;
#X obj 731 110 metro 20;
#X obj 730 77 tgl 15 0 empty empty empty 17 7 0 10 -262144 -1 -1 1
1;
#X obj 797 135 +~, f 23;
#X floatatom 931 87 5 0 0 0 - - -, f 5;
#X floatatom 798 22 5 0 0 0 - - -, f 5;
#X obj 688 337 osc~ 0.01;
#X obj 688 359 +~ 1;
#X obj 688 381 *~ 0.5;
#X obj 688 403 *~, f 15;
#X floatatom 773 376 5 0 0 0 - - -, f 5;
#X obj 688 459 snapshot~ 20;
#X obj 622 400 metro 20;
#X obj 621 367 tgl 15 0 empty empty empty 17 7 0 10 -262144 -1 -1 1
1;
#X obj 688 425 +~, f 23;
#X floatatom 822 377 5 0 0 0 - - -, f 5;
#X floatatom 660 545 5 0 0 0 - - -, f 5;
#X obj 730 201 osc~ 0.01;
#X obj 730 223 +~ 1;
#X obj 730 245 *~ 0.5;
#X obj 730 267 *~, f 15;
#X floatatom 815 240 5 0 0 0 - - -, f 5;
#X connect 2 0 0 0;
#X connect 2 0 23 0;
#X connect 5 0 4 0;
#X connect 6 0 5 0;
#X connect 7 0 8 0;
#X connect 8 0 9 0;
#X connect 9 0 15 0;
#X connect 10 0 11 0;
#X connect 11 0 12 0;
#X connect 12 0 13 0;
#X connect 13 0 21 0;
#X connect 14 0 13 1;
#X connect 15 0 18 0;
#X connect 16 0 15 1;
#X connect 17 0 16 0;
#X connect 17 0 48 1;
#X connect 18 0 4 0;
#X connect 18 0 48 0;
#X connect 19 0 10 0;
#X connect 20 0 8 1;
#X connect 21 0 9 1;
#X connect 22 0 21 1;
#X connect 24 0 0 1;
#X connect 25 0 26 0;
#X connect 26 0 27 0;
#X connect 27 0 28 0;
#X connect 28 0 30 0;
#X connect 29 0 28 1;
#X connect 30 0 24 0;
#X connect 31 0 30 1;
#X connect 32 0 33 0;
#X connect 33 0 34 0;
#X connect 34 0 35 0;
#X connect 35 0 25 0;
#X connect 36 0 35 1;
#X connect 37 0 38 0;
#X connect 38 0 39 0;
#X connect 39 0 40 0;
#X connect 40 0 45 0;
#X connect 41 0 40 1;
#X connect 42 0 8 1;
#X connect 43 0 42 0;
#X connect 44 0 43 0;
#X connect 45 0 42 0;
#X connect 46 0 45 1;
#X connect 47 0 37 0;
#X connect 48 0 2 0;
#X connect 49 0 50 0;
#X connect 50 0 51 0;
#X connect 51 0 52 0;
#X connect 52 0 57 0;
#X connect 53 0 52 1;
#X connect 54 0 17 0;
#X connect 55 0 54 0;
#X connect 56 0 55 0;
#X connect 57 0 54 0;
#X connect 58 0 57 1;
#X connect 59 0 49 0;
#X connect 60 0 61 0;
#X connect 61 0 62 0;
#X connect 62 0 63 0;
#X connect 63 0 68 0;
#X connect 64 0 63 1;
#X connect 65 0 2 1;
#X connect 65 0 70 0;
#X connect 66 0 65 0;
#X connect 67 0 66 0;
#X connect 68 0 65 0;
#X connect 69 0 68 1;
#X connect 71 0 72 0;
#X connect 72 0 73 0;
#X connect 73 0 74 0;
#X connect 74 0 60 0;
#X connect 75 0 74 1;
